<?xml version="1.0" encoding="UTF-8"?><svg xmlns="http://www.w3.org/2000/svg" width="630" height="462" version="1.0" shape-rendering="geometricPrecision"><defs><style type="text/css">@font-face {
  font-family: sans-serif;
}</style><filter id="shadowBlur" x="0" y="0" width="200%" height="200%"><feOffset in="SourceGraphic" dx="3.0003002" dy="3.0003002" result="offOut"></feOffset><feGaussianBlur in="offOut" stdDeviation="3"></feGaussianBlur></filter></defs><g stroke-width="1" stroke-linecap="square" stroke-linejoin="round"><rect x="0" y="0" width="630" height="462" style="fill: #ffffff"></rect><path stroke="#969696" fill="#969696" filter="url(#shadowBlur)" d="M600.0 427.0 Q605.0 427.0 605.0 420.0 L605.0 112.0 Q605.0 105.0 600.0 105.0 L30.0 105.0 L30.0 105.0 Q25.0 105.0 25.0 112.0 L25.0 420.0 L25.0 420.0 Q25.0 427.0 30.0 427.0 L600.0 427.0 z"></path><path stroke="#969696" fill="#969696" filter="url(#shadowBlur)" d="M385.0 133.0 L385.0 161.0 L205.0 161.0 L205.0 133.0 z"></path><path stroke="#969696" fill="#969696" filter="url(#shadowBlur)" d="M55.0 259.0 L55.0 287.0 L235.0 287.0 L235.0 259.0 z"></path><path stroke="#969696" fill="#969696" filter="url(#shadowBlur)" d="M505.0 371.0 L505.0 399.0 L335.0 399.0 L335.0 371.0 z"></path><path stroke="#969696" fill="#969696" filter="url(#shadowBlur)" d="M225.0 371.0 L225.0 399.0 L55.0 399.0 L55.0 371.0 z"></path><path stroke="#969696" fill="#969696" filter="url(#shadowBlur)" d="M365.0 35.0 L365.0 63.0 L215.0 63.0 L215.0 35.0 z"></path><path stroke="#000000" stroke-width="1.0" stroke-linecap="round" stroke-linejoin="round" fill="#11aabb" d="M600.0 427.0 Q605.0 427.0 605.0 420.0 L605.0 112.0 Q605.0 105.0 600.0 105.0 L30.0 105.0 L30.0 105.0 Q25.0 105.0 25.0 112.0 L25.0 420.0 L25.0 420.0 Q25.0 427.0 30.0 427.0 L600.0 427.0 z"></path><path stroke="#000000" stroke-width="1.0" stroke-linecap="round" stroke-linejoin="round" fill="#5555bb" d="M385.0 133.0 L385.0 161.0 L205.0 161.0 L205.0 133.0 z"></path><path stroke="#000000" stroke-width="1.0" stroke-linecap="round" stroke-linejoin="round" fill="#5555bb" d="M55.0 259.0 L55.0 287.0 L235.0 287.0 L235.0 259.0 z"></path><path stroke="#000000" stroke-width="1.0" stroke-linecap="round" stroke-linejoin="round" fill="none" d="M335.0 161.0 L335.0 203.0 L425.0 203.0 L425.0 357.0 "></path><path stroke="#000000" stroke-width="1.0" stroke-linecap="round" stroke-linejoin="round" fill="#5555bb" d="M505.0 371.0 L505.0 399.0 L335.0 399.0 L335.0 371.0 z"></path><path stroke="#000000" stroke-width="1.0" stroke-linecap="round" stroke-linejoin="round" fill="#5555bb" d="M225.0 371.0 L225.0 399.0 L55.0 399.0 L55.0 371.0 z"></path><path stroke="#000000" stroke-width="1.0" stroke-linecap="round" stroke-linejoin="round" fill="white" d="M365.0 35.0 L365.0 63.0 L215.0 63.0 L215.0 35.0 z"></path><path stroke="#000000" stroke-width="1.0" stroke-linecap="round" stroke-linejoin="round" fill="none" d="M135.0 259.0 L135.0 203.0 L255.0 203.0 L255.0 175.0 "></path><path stroke="none" stroke-width="1.0" stroke-linecap="round" stroke-linejoin="round" fill="#000000" d="M290.0 84.0 L295.0 98.0 L300.0 84.0 z"></path><path stroke="none" stroke-width="1.0" stroke-linecap="round" stroke-linejoin="round" fill="#000000" d="M255.0 168.0 L250.0 182.0 L260.0 182.0 z"></path><path stroke="none" stroke-width="1.0" stroke-linecap="round" stroke-linejoin="round" fill="#000000" d="M130.0 350.0 L135.0 364.0 L140.0 350.0 z"></path><path stroke="none" stroke-width="1.0" stroke-linecap="round" stroke-linejoin="round" fill="#000000" d="M420.0 350.0 L425.0 364.0 L430.0 350.0 z"></path><path stroke="#000000" stroke-width="1.0" stroke-linecap="round" stroke-linejoin="round" fill="none" d="M295.0 63.0 L295.0 91.0 "></path><path stroke="#000000" stroke-width="1.0" stroke-linecap="round" stroke-linejoin="round" fill="none" d="M135.0 287.0 L135.0 357.0 "></path><text x="440" y="251" font-family="sans-serif" font-size="16" stroke="none" fill="#ffffff"><![CDATA[Generates]]></text><text x="440" y="265" font-family="sans-serif" font-size="16" stroke="none" fill="#ffffff"><![CDATA[Tenant]]></text><text x="440" y="279" font-family="sans-serif" font-size="16" stroke="none" fill="#ffffff"><![CDATA[configuration]]></text><text x="440" y="293" font-family="sans-serif" font-size="16" stroke="none" fill="#ffffff"><![CDATA[Git repository]]></text><text x="150" y="321" font-family="sans-serif" font-size="16" stroke="none" fill="#ffffff"><![CDATA[Generates]]></text><text x="150" y="335" font-family="sans-serif" font-size="16" stroke="none" fill="#ffffff"><![CDATA[Cluster Catalog]]></text><text x="150" y="349" font-family="sans-serif" font-size="16" stroke="none" fill="#ffffff"><![CDATA[Git repository]]></text><text x="234" y="55" font-family="sans-serif" font-size="16" stroke="none" fill="#000000"><![CDATA[Lieutenant API]]></text><text x="68" y="279" font-family="sans-serif" font-size="16" stroke="none" fill="#ffffff"><![CDATA[Cluster]]></text><text x="214" y="153" font-family="sans-serif" font-size="16" stroke="none" fill="#ffffff"><![CDATA[Tenant]]></text><text x="64" y="391" font-family="sans-serif" font-size="16" stroke="none" fill="#ffffff"><![CDATA[GitRepo]]></text><text x="39" y="97" font-family="sans-serif" font-size="16" stroke="none" fill="#000000"><![CDATA[Lieutenant Operator]]></text><text x="149" y="223" font-family="sans-serif" font-size="16" stroke="none" fill="#ffffff"><![CDATA[Belongs to]]></text><text x="344" y="391" font-family="sans-serif" font-size="16" stroke="none" fill="#ffffff"><![CDATA[GitRepo]]></text></g></svg>