<?xml version="1.0" encoding="UTF-8"?><svg xmlns="http://www.w3.org/2000/svg" width="1230" height="672" version="1.0" shape-rendering="geometricPrecision"><defs><style type="text/css">@font-face {
  font-family: sans-serif;
}</style><filter id="shadowBlur" x="0" y="0" width="200%" height="200%"><feOffset in="SourceGraphic" dx="3.0003002" dy="3.0003002" result="offOut"></feOffset><feGaussianBlur in="offOut" stdDeviation="3"></feGaussianBlur></filter></defs><g stroke-width="1" stroke-linecap="square" stroke-linejoin="round"><rect x="0" y="0" width="1230" height="672" style="fill: #ffffff"></rect><path stroke="#969696" fill="#969696" filter="url(#shadowBlur)" d="M825.0 49.0 L825.0 511.0 L1205.0 511.0 L1205.0 49.0 z"></path><path stroke="#969696" fill="#969696" filter="url(#shadowBlur)" d="M485.0 371.0 L485.0 525.0 L25.0 525.0 L25.0 371.0 z"></path><path stroke="#969696" fill="#969696" filter="url(#shadowBlur)" d="M225.0 399.0 L225.0 469.0 L445.0 469.0 L445.0 399.0 z"></path><path stroke="#969696" fill="#969696" filter="url(#shadowBlur)" d="M400.0 35.0 Q405.0 35.0 405.0 42.0 L405.0 84.0 Q405.0 89.0 400.0 89.0 L150.0 89.0 L150.0 89.0 Q145.0 89.0 145.0 84.0 L145.0 42.0 L145.0 42.0 Q145.0 35.0 150.0 35.0 L400.0 35.0 z"></path><path stroke="#969696" fill="#969696" filter="url(#shadowBlur)" d="M390.0 245.0 Q395.0 245.0 395.0 252.0 L395.0 294.0 Q395.0 301.0 390.0 301.0 L150.0 301.0 L150.0 301.0 Q145.0 301.0 145.0 294.0 L145.0 252.0 L145.0 252.0 Q145.0 245.0 150.0 245.0 L390.0 245.0 z"></path><path stroke="#969696" fill="#969696" filter="url(#shadowBlur)" d="M525.0 581.0 L525.0 637.0 L295.0 637.0 L295.0 581.0 z"></path><path stroke="#969696" fill="#969696" filter="url(#shadowBlur)" d="M385.0 93.0 L385.0 140.0 Q385.0 147.0 380.0 147.0 L170.0 147.0 L170.0 147.0 Q165.0 147.0 165.0 140.0 L165.0 93.0 L165.0 93.0 z"></path><path stroke="#969696" fill="#969696" filter="url(#shadowBlur)" d="M1070.0 77.0 Q1075.0 77.0 1075.0 84.0 L1075.0 126.0 Q1075.0 133.0 1070.0 133.0 L870.0 133.0 L870.0 133.0 Q865.0 133.0 865.0 126.0 L865.0 84.0 L865.0 84.0 Q865.0 77.0 870.0 77.0 L1070.0 77.0 z"></path><path stroke="#969696" fill="#969696" filter="url(#shadowBlur)" d="M1075.0 245.0 L1075.0 301.0 L865.0 301.0 L865.0 245.0 z"></path><path stroke="#969696" fill="#969696" filter="url(#shadowBlur)" d="M205.0 399.0 L205.0 469.0 L45.0 469.0 L45.0 399.0 z"></path><path stroke="#969696" fill="#969696" filter="url(#shadowBlur)" d="M745.0 245.0 L745.0 301.0 L565.0 301.0 L565.0 245.0 z"></path><path stroke="#969696" fill="#969696" filter="url(#shadowBlur)" d="M645.0 399.0 L645.0 469.0 L515.0 469.0 L515.0 399.0 z"></path><path stroke="#969696" fill="#969696" filter="url(#shadowBlur)" d="M1075.0 609.0 L1075.0 637.0 L825.0 637.0 L825.0 609.0 z"></path><path stroke="#969696" fill="#969696" filter="url(#shadowBlur)" d="M1075.0 553.0 L1075.0 581.0 L825.0 581.0 L825.0 553.0 z"></path><path stroke="white" stroke-width="1.0" stroke-linecap="round" stroke-linejoin="round" fill="#ffffff" d="M545.0 147.0 C560.0 154.0 620.0 154.0 635.0 147.0 C620.0 140.0 560.0 140.0 545.0 147.0 M545.0 147.0 L545.0 203.0 C560.0 213.0 620.0 213.0 635.0 203.0 L635.0 147.0 "></path><path stroke="#000000" stroke-width="1.0" stroke-linecap="round" stroke-linejoin="round" fill="none" d="M545.0 147.0 C560.0 154.0 620.0 154.0 635.0 147.0 C620.0 140.0 560.0 140.0 545.0 147.0 M545.0 147.0 L545.0 203.0 C560.0 213.0 620.0 213.0 635.0 203.0 L635.0 147.0 "></path><path stroke="#000000" stroke-width="1.0" stroke-linecap="round" stroke-linejoin="round" fill="white" d="M825.0 49.0 L825.0 511.0 L1205.0 511.0 L1205.0 49.0 z"></path><path stroke="#000000" stroke-width="1.0" stroke-linecap="round" stroke-linejoin="round" fill="white" d="M485.0 371.0 L485.0 525.0 L25.0 525.0 L25.0 371.0 z"></path><path stroke="#000000" stroke-width="1.0" stroke-linecap="round" stroke-linejoin="round" fill="#99dd99" d="M225.0 399.0 L225.0 469.0 L445.0 469.0 L445.0 399.0 z"></path><path stroke="#000000" stroke-width="1.0" stroke-linecap="round" stroke-linejoin="round" fill="#5555bb" d="M400.0 35.0 Q405.0 35.0 405.0 42.0 L405.0 84.0 Q405.0 89.0 400.0 89.0 L150.0 89.0 L150.0 89.0 Q145.0 89.0 145.0 84.0 L145.0 42.0 L145.0 42.0 Q145.0 35.0 150.0 35.0 L400.0 35.0 z"></path><path stroke="#000000" stroke-width="1.0" stroke-linecap="round" stroke-linejoin="round" fill="#5555bb" d="M390.0 245.0 Q395.0 245.0 395.0 252.0 L395.0 294.0 Q395.0 301.0 390.0 301.0 L150.0 301.0 L150.0 301.0 Q145.0 301.0 145.0 294.0 L145.0 252.0 L145.0 252.0 Q145.0 245.0 150.0 245.0 L390.0 245.0 z"></path><path stroke="#000000" stroke-width="1.0" stroke-linecap="round" stroke-linejoin="round" fill="white" d="M525.0 581.0 L525.0 637.0 L295.0 637.0 L295.0 581.0 z"></path><path stroke="#000000" stroke-width="1.0" stroke-linecap="round" stroke-linejoin="round" fill="#5555bb" d="M385.0 93.0 L385.0 140.0 Q385.0 147.0 380.0 147.0 L170.0 147.0 L170.0 147.0 Q165.0 147.0 165.0 140.0 L165.0 93.0 L165.0 93.0 z"></path><path stroke="#000000" stroke-width="1.0" stroke-linecap="round" stroke-linejoin="round" fill="#5555bb" d="M1070.0 77.0 Q1075.0 77.0 1075.0 84.0 L1075.0 126.0 Q1075.0 133.0 1070.0 133.0 L870.0 133.0 L870.0 133.0 Q865.0 133.0 865.0 126.0 L865.0 84.0 L865.0 84.0 Q865.0 77.0 870.0 77.0 L1070.0 77.0 z"></path><path stroke="#000000" stroke-width="1.0" stroke-linecap="round" stroke-linejoin="round" fill="white" d="M1075.0 245.0 L1075.0 301.0 L865.0 301.0 L865.0 245.0 z"></path><path stroke="#000000" stroke-width="1.0" stroke-linecap="round" stroke-linejoin="round" fill="#99dd99" d="M205.0 399.0 L205.0 469.0 L45.0 469.0 L45.0 399.0 z"></path><path stroke="#000000" stroke-width="1.0" stroke-linecap="round" stroke-linejoin="round" fill="#99dd99" d="M745.0 245.0 L745.0 301.0 L565.0 301.0 L565.0 245.0 z"></path><path stroke="#000000" stroke-width="1.0" stroke-linecap="round" stroke-linejoin="round" fill="none" d="M145.0 273.0 L95.0 273.0 L95.0 63.0 L135.0 63.0 "></path><path stroke="#000000" stroke-width="1.0" stroke-linecap="round" stroke-linejoin="round" fill="white" d="M645.0 399.0 L645.0 469.0 L515.0 469.0 L515.0 399.0 z"></path><path stroke="#000000" stroke-width="1.0" stroke-linecap="round" stroke-linejoin="round" fill="#99dd99" d="M1075.0 609.0 L1075.0 637.0 L825.0 637.0 L825.0 609.0 z"></path><path stroke="#000000" stroke-width="1.0" stroke-linecap="round" stroke-linejoin="round" fill="#5555bb" d="M1075.0 553.0 L1075.0 581.0 L825.0 581.0 L825.0 553.0 z"></path><path stroke="#000000" stroke-width="1.0" stroke-linecap="round" stroke-linejoin="round" fill="none" d="M815.0 105.0 L475.0 105.0 L475.0 63.0 L415.0 63.0 "></path><path stroke="#000000" stroke-width="1.0" stroke-linecap="round" stroke-linejoin="round" fill="none" d="M575.0 483.0 L575.0 609.0 L525.0 609.0 "></path><path stroke="#000000" stroke-width="1.0" stroke-linecap="round" stroke-linejoin="round" fill="none" d="M575.0 399.0 L575.0 343.0 L365.0 343.0 L365.0 315.0 "></path><path stroke="#000000" stroke-width="1.0" stroke-linecap="round" stroke-linejoin="round" fill="none" d="M885.0 245.0 L885.0 175.0 L835.0 175.0 "></path><path stroke="#000000" stroke-width="1.0" stroke-linecap="round" stroke-linejoin="round" fill="none" d="M385.0 119.0 L435.0 119.0 L435.0 175.0 L535.0 175.0 "></path><path stroke="#000000" stroke-width="1.0" stroke-linecap="round" stroke-linejoin="round" fill="none" d="M205.0 315.0 L205.0 343.0 L125.0 343.0 L125.0 357.0 "></path><path stroke="#000000" stroke-width="1.0" stroke-linecap="round" stroke-linejoin="round" fill="none" d="M335.0 357.0 L335.0 343.0 L275.0 343.0 L275.0 315.0 "></path><path stroke="none" stroke-width="1.0" stroke-linecap="round" stroke-linejoin="round" fill="#000000" d="M130.0 56.0 L140.0 63.0 L130.0 70.0 z"></path><path stroke="none" stroke-width="1.0" stroke-linecap="round" stroke-linejoin="round" fill="#000000" d="M420.0 56.0 L410.0 63.0 L420.0 70.0 z"></path><path stroke="none" stroke-width="1.0" stroke-linecap="round" stroke-linejoin="round" fill="#000000" d="M530.0 168.0 L540.0 175.0 L530.0 182.0 z"></path><path stroke="none" stroke-width="1.0" stroke-linecap="round" stroke-linejoin="round" fill="#000000" d="M650.0 168.0 L640.0 175.0 L650.0 182.0 z"></path><path stroke="none" stroke-width="1.0" stroke-linecap="round" stroke-linejoin="round" fill="#000000" d="M960.0 224.0 L965.0 238.0 L970.0 224.0 z"></path><path stroke="none" stroke-width="1.0" stroke-linecap="round" stroke-linejoin="round" fill="#000000" d="M550.0 266.0 L560.0 273.0 L550.0 280.0 z"></path><path stroke="none" stroke-width="1.0" stroke-linecap="round" stroke-linejoin="round" fill="#000000" d="M760.0 266.0 L750.0 273.0 L760.0 280.0 z"></path><path stroke="none" stroke-width="1.0" stroke-linecap="round" stroke-linejoin="round" fill="#000000" d="M205.0 308.0 L200.0 322.0 L210.0 322.0 z"></path><path stroke="none" stroke-width="1.0" stroke-linecap="round" stroke-linejoin="round" fill="#000000" d="M275.0 308.0 L270.0 322.0 L280.0 322.0 z"></path><path stroke="none" stroke-width="1.0" stroke-linecap="round" stroke-linejoin="round" fill="#000000" d="M365.0 308.0 L360.0 322.0 L370.0 322.0 z"></path><path stroke="none" stroke-width="1.0" stroke-linecap="round" stroke-linejoin="round" fill="#000000" d="M575.0 476.0 L570.0 490.0 L580.0 490.0 z"></path><path stroke="none" stroke-width="1.0" stroke-linecap="round" stroke-linejoin="round" fill="#000000" d="M395.0 532.0 L390.0 546.0 L400.0 546.0 z"></path><path stroke="#000000" stroke-width="1.0" stroke-linecap="round" stroke-linejoin="round" fill="none" d="M125.0 378.0 L125.0 399.0 "></path><path stroke="#000000" stroke-width="1.0" stroke-linecap="round" stroke-linejoin="round" fill="none" d="M335.0 378.0 L335.0 399.0 "></path><path stroke="#000000" stroke-width="1.0" stroke-linecap="round" stroke-linejoin="round" fill="none" d="M645.0 175.0 L815.0 175.0 "></path><path stroke="#000000" stroke-width="1.0" stroke-linecap="round" stroke-linejoin="round" fill="none" d="M815.0 273.0 L755.0 273.0 "></path><path stroke="#000000" stroke-width="1.0" stroke-linecap="round" stroke-linejoin="round" fill="none" d="M865.0 105.0 L835.0 105.0 "></path><path stroke="#000000" stroke-width="1.0" stroke-linecap="round" stroke-linejoin="round" fill="none" d="M965.0 133.0 L965.0 231.0 "></path><path stroke="#000000" stroke-width="1.0" stroke-linecap="round" stroke-linejoin="round" fill="none" d="M835.0 273.0 L865.0 273.0 "></path><path stroke="#000000" stroke-width="1.0" stroke-linecap="round" stroke-linejoin="round" fill="none" d="M395.0 273.0 L555.0 273.0 "></path><path stroke="#000000" stroke-width="1.0" stroke-linecap="round" stroke-linejoin="round" fill="none" d="M395.0 539.0 L395.0 581.0 "></path><text x="220" y="489" font-family="sans-serif" font-size="16" stroke="none" fill="#000000"><![CDATA[Git repo created &]]></text><text x="220" y="503" font-family="sans-serif" font-size="16" stroke="none" fill="#000000"><![CDATA[configured by Lieutenant]]></text><text x="220" y="517" font-family="sans-serif" font-size="16" stroke="none" fill="#000000"><![CDATA[Operator]]></text><text x="500" y="83" font-family="sans-serif" font-size="16" stroke="none" fill="#000000"><![CDATA[Cluster information]]></text><text x="500" y="97" font-family="sans-serif" font-size="16" stroke="none" fill="#000000"><![CDATA[SSH keys]]></text><text x="857" y="573" font-family="sans-serif" font-size="16" stroke="none" fill="#ffffff"><![CDATA[Project Syn Tool]]></text><text x="199" y="125" font-family="sans-serif" font-size="16" stroke="none" fill="#ffffff"><![CDATA[Lieutenant Operator]]></text><text x="980" y="181" font-family="sans-serif" font-size="16" stroke="none" fill="#000000"><![CDATA[Deployment]]></text><text x="980" y="195" font-family="sans-serif" font-size="16" stroke="none" fill="#000000"><![CDATA[Reconciliation]]></text><text x="314" y="615" font-family="sans-serif" font-size="16" stroke="none" fill="#000000"><![CDATA[Renovate]]></text><text x="140" y="209" font-family="sans-serif" font-size="16" stroke="none" fill="#000000"><![CDATA[Get cluster, tenant and]]></text><text x="140" y="223" font-family="sans-serif" font-size="16" stroke="none" fill="#000000"><![CDATA[Git repo information]]></text><text x="598" y="279" font-family="sans-serif" font-size="16" stroke="none" fill="#000000"><![CDATA[Cluster catalog]]></text><text x="240" y="433" font-family="sans-serif" font-size="16" stroke="none" fill="#000000"><![CDATA[Tenant and cluster]]></text><text x="240" y="447" font-family="sans-serif" font-size="16" stroke="none" fill="#000000"><![CDATA[configuration]]></text><text x="859" y="41" font-family="sans-serif" font-size="16" stroke="none" fill="#000000"><![CDATA[Project Syn enabled Kubernetes cluster]]></text><text x="58" y="545" font-family="sans-serif" font-size="16" stroke="none" fill="#000000"><![CDATA[Configuration Git repositories]]></text><text x="60" y="432" font-family="sans-serif" font-size="13" stroke="none" fill="#000000"><![CDATA[Common]]></text><text x="60" y="447" font-family="sans-serif" font-size="16" stroke="none" fill="#000000"><![CDATA[configuration]]></text><text x="413" y="559" font-family="sans-serif" font-size="16" stroke="none" fill="#000000"><![CDATA[Update]]></text><text x="420" y="251" font-family="sans-serif" font-size="16" stroke="none" fill="#000000"><![CDATA[Push compiled]]></text><text x="420" y="265" font-family="sans-serif" font-size="16" stroke="none" fill="#000000"><![CDATA[catalog]]></text><text x="174" y="69" font-family="sans-serif" font-size="16" stroke="none" fill="#ffffff"><![CDATA[Lieutenant API]]></text><text x="161" y="278" font-family="sans-serif" font-size="15" stroke="none" fill="#ffffff"><![CDATA[Commodore]]></text><text x="821" y="545" font-family="sans-serif" font-size="16" stroke="none" fill="#000000"><![CDATA[Legend]]></text><text x="859" y="629" font-family="sans-serif" font-size="16" stroke="none" fill="#000000"><![CDATA[Git repository]]></text><text x="530" y="432" font-family="sans-serif" font-size="15" stroke="none" fill="#000000"><![CDATA[Commodore]]></text><text x="530" y="447" font-family="sans-serif" font-size="16" stroke="none" fill="#000000"><![CDATA[Components]]></text><text x="884" y="111" font-family="sans-serif" font-size="16" stroke="none" fill="#ffffff"><![CDATA[Steward]]></text><text x="883" y="279" font-family="sans-serif" font-size="16" stroke="none" fill="#000000"><![CDATA[Argo CD]]></text><text x="566" y="181" font-family="sans-serif" font-size="16" stroke="none" fill="#000000"><![CDATA[Vault]]></text><text x="593" y="503" font-family="sans-serif" font-size="16" stroke="none" fill="#000000"><![CDATA[Update]]></text></g></svg>